<svg xmlns="http://www.w3.org/2000/svg" viewBox="0 0 468 340.31"><defs><style>.cls-1{fill:#fff;}.cls-2{opacity:0.7;}</style></defs><title>资源 4</title><g id="图层_2" data-name="图层 2"><g id="图层_1-2" data-name="图层 1"><polygon class="cls-1" points="468 340.31 392.25 340.31 294.87 0 370.61 0 468 340.31"/><polygon class="cls-1" points="372.24 264.57 270.41 264.57 280.69 228.86 372.24 228.86 372.24 264.57"/><g class="cls-2"><rect class="cls-1" x="192.12" y="15.24" width="167.97" height="5.41"/><rect class="cls-1" x="218.58" y="30.47" width="141.51" height="5.41"/><rect class="cls-1" x="213.17" y="45.71" width="146.92" height="5.41"/><rect class="cls-1" x="223.99" y="60.95" width="136.1" height="5.41"/><rect class="cls-1" x="233.73" y="76.18" width="126.36" height="5.41"/><rect class="cls-1" x="213.17" y="91.42" width="146.92" height="5.41"/><rect class="cls-1" x="228.32" y="106.66" width="131.77" height="5.41"/><rect class="cls-1" x="198.02" y="121.9" width="162.07" height="5.41"/><rect class="cls-1" x="192.61" y="137.13" width="167.48" height="5.41"/><rect class="cls-1" x="172.05" y="152.37" width="188.04" height="5.41"/><rect class="cls-1" x="151.49" y="167.61" width="208.6" height="5.41"/><rect class="cls-1" x="151.49" y="182.84" width="208.6" height="5.41"/><rect class="cls-1" x="172.05" y="198.08" width="188.04" height="5.41"/><rect class="cls-1" x="172.05" y="213.32" width="188.04" height="5.41"/><polygon class="cls-1" points="265.54 279.52 95.22 279.52 95.22 274.11 267.71 274.11 265.54 279.52"/><polygon class="cls-1" points="261.35 294.87 110.37 294.87 110.37 289.46 263.27 289.46 261.35 294.87"/><polygon class="cls-1" points="257.17 309.92 132.01 309.92 132.01 304.51 258.94 304.51 257.17 309.92"/><polygon class="cls-1" points="253.11 325.12 147.16 325.12 147.16 319.71 254.62 319.71 253.11 325.12"/><polygon class="cls-1" points="248.66 340.31 147.16 340.31 147.16 334.9 250.28 334.9 248.66 340.31"/><rect class="cls-1" x="146.08" y="228.86" width="148.25" height="5.41"/><rect class="cls-1" x="121.19" y="259.16" width="173.13" height="5.41"/><rect class="cls-1" x="156.9" y="244.01" width="137.42" height="5.41"/><rect class="cls-1" x="254.31" width="105.78" height="5.41"/><rect class="cls-1" x="146.24" width="10.82" height="5.41"/><rect class="cls-1" x="130.93" y="15.24" width="10.82" height="5.41"/><rect class="cls-1" x="156.9" y="30.84" width="10.82" height="5.41"/><rect class="cls-1" x="130.93" y="45.99" width="10.82" height="5.41"/><rect class="cls-1" x="130.93" y="76.18" width="10.82" height="5.41"/><rect class="cls-1" x="97.39" y="121.9" width="10.82" height="5.41"/><rect class="cls-1" x="111.45" y="137.13" width="10.82" height="5.41"/><rect class="cls-1" x="132.01" y="152.37" width="10.82" height="5.41"/><rect class="cls-1" x="78.99" y="167.61" width="10.82" height="5.41"/><rect class="cls-1" x="130.93" y="198.08" width="10.82" height="5.41"/><rect class="cls-1" x="102.8" y="213.32" width="10.82" height="5.41"/><rect class="cls-1" x="63.84" y="244.01" width="10.82" height="5.41"/><rect class="cls-1" x="63.84" y="259.16" width="10.82" height="5.41"/><rect class="cls-1" x="69.25" y="274.11" width="10.82" height="5.41"/><rect class="cls-1" x="88.73" y="289.46" width="10.82" height="5.41"/><rect class="cls-1" x="28.13" y="259.16" width="10.82" height="5.41"/><rect class="cls-1" x="129.85" y="244.01" width="10.82" height="5.41"/><rect class="cls-1" x="80.07" y="228.86" width="10.82" height="5.41"/><rect class="cls-1" x="105.5" y="198.08" width="5.41" height="5.41"/><rect class="cls-1" x="120.11" y="228.86" width="5.41" height="5.41"/><rect class="cls-1" x="89.81" y="259.16" width="5.41" height="5.41"/><rect class="cls-1" y="289.46" width="5.41" height="5.41"/><rect class="cls-1" x="111.45" y="304.51" width="5.41" height="5.41"/><rect class="cls-1" x="69.25" y="334.9" width="5.41" height="5.41"/><rect class="cls-1" x="88.73" y="304.51" width="10.82" height="5.41"/><rect class="cls-1" x="104.96" y="319.71" width="10.82" height="5.41"/><rect class="cls-1" x="125.52" y="334.9" width="10.82" height="5.41"/><rect class="cls-1" x="34.63" y="319.71" width="10.82" height="5.41"/><rect class="cls-1" x="22.72" y="304.51" width="10.82" height="5.41"/><rect class="cls-1" x="54.1" y="304.51" width="5.41" height="5.41"/><rect class="cls-1" x="200.18" y="30.84" width="10.82" height="5.41"/><rect class="cls-1" x="175.84" y="30.84" width="16.23" height="5.41"/><rect class="cls-1" x="148.25" y="137.13" width="16.23" height="5.41"/><rect class="cls-1" x="80.07" y="137.13" width="16.23" height="5.41"/><rect class="cls-1" x="89.81" y="152.37" width="16.23" height="5.41"/><rect class="cls-1" x="45.45" y="167.61" width="16.23" height="5.41"/><rect class="cls-1" x="110.37" y="167.61" width="16.23" height="5.41"/><rect class="cls-1" x="69.25" y="198.08" width="16.23" height="5.41"/><rect class="cls-1" x="69.25" y="213.32" width="16.23" height="5.41"/><rect class="cls-1" x="135.26" y="213.32" width="16.23" height="5.41"/><rect class="cls-1" x="93.06" y="244.01" width="16.23" height="5.41"/><rect class="cls-1" x="34.63" y="274.11" width="16.23" height="5.41"/><rect class="cls-1" x="69.25" y="319.71" width="16.23" height="5.41"/><rect class="cls-1" x="88.73" y="334.9" width="16.23" height="5.41"/><rect class="cls-1" x="9.74" y="274.11" width="16.23" height="5.41"/><rect class="cls-1" x="20.56" y="289.46" width="16.23" height="5.41"/><rect class="cls-1" x="120.11" y="121.9" width="16.23" height="5.41"/><rect class="cls-1" x="173.13" y="45.71" width="16.23" height="5.41"/><rect class="cls-1" x="54.1" y="60.95" width="16.23" height="5.41"/><rect class="cls-1" x="78.99" y="76.18" width="16.23" height="5.41"/><rect class="cls-1" x="78.99" y="91.42" width="16.23" height="5.41"/><rect class="cls-1" x="89.27" y="45.99" width="21.64" height="5.41"/><rect class="cls-1" x="103.88" y="60.95" width="21.64" height="5.41"/><rect class="cls-1" x="161.23" y="60.95" width="21.64" height="5.41"/><rect class="cls-1" x="40.04" y="76.18" width="21.64" height="5.41"/><rect class="cls-1" x="185.04" y="76.18" width="21.64" height="5.41"/><rect class="cls-1" x="161.23" y="91.42" width="21.64" height="5.41"/><rect class="cls-1" x="89.81" y="106.66" width="16.23" height="5.41"/><rect class="cls-1" x="111.45" y="91.42" width="21.64" height="5.41"/><rect class="cls-1" x="126.6" y="106.66" width="21.64" height="5.41"/><rect class="cls-1" x="159.07" y="121.9" width="21.64" height="5.41"/><rect class="cls-1" x="54.1" y="152.37" width="21.64" height="5.41"/><rect class="cls-1" x="54.1" y="182.84" width="21.64" height="5.41"/><rect class="cls-1" x="47.61" y="289.46" width="21.64" height="5.41"/><rect class="cls-1" x="108.21" y="182.84" width="21.64" height="5.41"/><rect class="cls-1" x="222.91" width="10.82" height="5.41"/><rect class="cls-1" x="187.47" width="16.23" height="5.41"/><rect class="cls-1" x="161.23" y="15.24" width="16.23" height="5.41"/><rect class="cls-1" x="109.77" width="16.23" height="5.41"/></g></g></g></svg>