<?xml version="1.0" encoding="UTF-8"?>
<svg width="64px" height="64px" viewBox="0 0 64 64" version="1.1" xmlns="http://www.w3.org/2000/svg" xmlns:xlink="http://www.w3.org/1999/xlink">
    <title>Button / Circle + Label</title>
    <g id="页面-1" stroke="none" stroke-width="1" fill="none" fillRule="evenodd">
        <g id="Group-5" transform="translate(-243.000000, 0.000000)">
            <g id="Button-/-Circle-+-Label" transform="translate(243.000000, 0.000000)">
                <path d="M32,0 C49.673112,0 64,14.326888 64,32 C64,49.673112 49.673112,64 32,64 C14.326888,64 0,49.673112 0,32 C0,14.326888 14.326888,0 32,0 Z M32,2 C15.4314575,2 2,15.4314575 2,32 C2,48.5685425 15.4314575,62 32,62 C48.5685425,62 62,48.5685425 62,32 C62,15.4314575 48.5685425,2 32,2 Z" id="Oval" fill="#D6D6D6" fillRule="nonzero"></path>
                <g id="编组" transform="translate(16.000000, 16.000000)" stroke="#D6D6D6" stroke-linecap="round" stroke-linejoin="round" stroke-width="2">
                    <g id="Icon-/-32px-/-Send">
                        <path d="M30.7618527,10.7919813 C30.7621957,13.4676344 29.6441651,16.0216452 27.6780859,17.8364875 C25.7120068,19.6513298 23.0768562,20.5617939 20.4097789,20.3477416 C20.0286184,15.6606897 16.3078908,11.939962 11.6208388,11.5588015 C11.3455811,8.05728274 13.0074675,4.68563932 15.9522227,2.77126811 C18.896978,0.856896908 22.6529339,0.706427181 25.7413919,2.37909801 C28.8298499,4.05176884 30.7561246,7.27966466 30.7618527,10.7919813 L30.7618527,10.7919813 Z" id="Path"></path>
                        <path d="M20.439272,21.1145619 C20.439272,26.4083512 16.1478078,30.6998154 10.8540185,30.6998154 C5.56022921,30.6998154 1.26876506,26.4083512 1.26876506,21.1145619 C1.26876506,15.8207726 5.56022921,11.5293084 10.8540185,11.5293084 C16.1478078,11.5293084 20.439272,15.8207726 20.439272,21.1145619 L20.439272,21.1145619 Z" id="Path"></path>
                        <polygon id="Path" points="9.55632266 19.8168661 10.8540185 17.427926 12.1517144 19.8168661 14.5406545 21.1145619 12.1517144 22.4122578 10.8540185 24.8011978 9.55632266 22.4122578 7.16738257 21.1145619"></polygon>
                    </g>
                </g>
            </g>
        </g>
    </g>
</svg>