<?xml version="1.0" encoding="UTF-8"?>
<svg width="64px" height="64px" viewBox="0 0 64 64" version="1.1" xmlns="http://www.w3.org/2000/svg" xmlns:xlink="http://www.w3.org/1999/xlink">
    <title>Button / Circle + Label</title>
    <g id="页面-1" stroke="none" stroke-width="1" fill="none" fillRule="evenodd">
        <g id="Group-5" transform="translate(-81.000000, 0.000000)">
            <g id="Button-/-Circle-+-Label" transform="translate(81.000000, 0.000000)">
                <path d="M32,0 C49.673112,0 64,14.326888 64,32 C64,49.673112 49.673112,64 32,64 C14.326888,64 0,49.673112 0,32 C0,14.326888 14.326888,0 32,0 Z M32,2 C15.4314575,2 2,15.4314575 2,32 C2,48.5685425 15.4314575,62 32,62 C48.5685425,62 62,48.5685425 62,32 C62,15.4314575 48.5685425,2 32,2 Z" id="Oval" fill="#D6D6D6" fillRule="nonzero"></path>
                <g id="编组" transform="translate(16.000000, 16.000000)" stroke="#D6D6D6" stroke-linecap="round" stroke-linejoin="round" stroke-width="2">
                    <g id="Icon-/-32px-/-Send">
                        <polyline id="Path" transform="translate(16.000000, 23.026429) rotate(270.000000) translate(-16.000000, -23.026429) " points="19.9021429 15.2221429 12.0978571 23.0264286 19.9021429 30.8307143"></polyline>
                        <line x1="26.8192857" y1="15.8907143" x2="5.18071429" y2="15.8907143" id="Path" transform="translate(16.000000, 15.890714) rotate(270.000000) translate(-16.000000, -15.890714) "></line>
                    </g>
                </g>
            </g>
        </g>
    </g>
</svg>